<svg width="30" height="30" viewBox="0 0 30 30" fill="none" xmlns="http://www.w3.org/2000/svg">
<path d="M9.97969 21.0559C10.1578 21.049 11.0484 20.9598 11.1797 20.905C11.0672 20.7266 9.13594 20.8364 7.99219 17.5029C7.79063 16.913 7.64063 16.2957 7.69219 15.6098C7.82813 13.8608 9.23438 13.5521 10.1297 14.3409C11.8172 15.8224 13.0969 20.6032 15.4594 21.0284C17.1937 21.3371 19.425 19.8624 20.5312 17.9144C20.5031 17.9076 20.4937 17.9007 20.4844 17.9076C20.4656 17.9144 20.4469 17.9213 20.4328 17.9282C18.8719 18.7581 16.0125 18.5935 14.1188 16.913C12.3563 15.3492 11.6297 12.8868 11.6906 11.7962C11.775 10.3352 12.7641 10.2049 13.3734 10.4518C14.0484 10.7193 14.5172 11.659 15.1969 12.3312C15.9281 13.0445 16.7391 13.2709 17.6016 13.0377C18.3 12.8525 19.2141 12.194 19.3125 12.0431C19.2609 12.0363 19.2281 12.0363 19.1953 12.0294C18.9047 11.9882 18.6141 11.9745 18.3281 11.9128C13.1156 10.7811 12.2859 0.691466 6.49219 0.0398603C4.41563 -0.193346 1.83281 0.59544 0.103125 2.44051C0.065625 2.48167 0.0328125 2.52282 0 2.56397C0.0046875 2.57769 0.0046875 2.58455 0.009375 2.59827C0.046875 2.59827 0.084375 2.59141 0.121875 2.58455C0.417188 2.51596 0.707812 2.52968 0.998437 2.60513C2.11406 2.90007 3.23437 4.18956 3.61875 7.85227C3.86719 10.2049 3.58594 11.3366 3.99375 13.7579C4.88437 19.0462 8.25937 21.1382 9.97969 21.0559ZM3.52969 1.89179C3.4875 1.8232 3.4875 1.80948 3.46875 1.75461C4.03594 1.57628 4.60313 1.47339 5.18437 1.42538C5.13281 2.43365 4.14375 2.88635 3.52969 1.89179ZM12.7594 25.9326C10.7531 26.0149 8.44687 24.1013 6.97031 21.7212C6.75469 21.3782 6.18281 20.3357 6.09844 20.1162L6.11719 20.0887C6.42656 20.37 7.32188 21.3645 8.68594 21.9407C9.82031 22.4208 10.9406 22.3728 12.0422 21.7143C13.1062 21.0764 13.9641 21.68 14.0625 21.9132C13.1953 22.1739 13.1203 22.215 12.9375 22.4551C12.6984 22.7569 12.7219 23.2576 13.2656 23.6348C14.4937 24.4854 16.2188 23.4428 17.8219 25.377C17.9344 25.5142 18.2016 25.912 18.2953 26.1109C18.2906 26.1247 18.2812 26.1315 18.2766 26.1452C18.0516 26.0424 17.5078 25.6308 16.3922 25.5074C15.2344 25.3702 14.2219 25.8709 12.7594 25.9326ZM20.9531 8.64791C21.7219 8.29124 22.8891 7.72881 24.0703 8.42157C24.825 8.8674 25.2984 9.7042 25.575 10.7948C25.7391 11.4395 25.8141 12.146 25.8141 12.7633C25.8047 12.7633 25.7953 12.7633 25.7859 12.7702C25.7766 12.7427 25.7672 12.7084 25.7625 12.681C25.5281 11.172 24.3609 9.67676 22.5938 10.6302C20.2406 11.9059 16.4813 11.2955 14.3016 7.33784C14.2688 7.27611 14.1891 7.22124 14.2406 7.11835C14.2453 7.10464 14.3391 7.15951 14.3812 7.20752C15.2297 8.12663 16.1766 8.70964 17.2078 9.00458C18.6375 9.42298 19.7672 9.20349 20.9531 8.64791ZM25.7672 16.7072C24.2484 16.721 24.1828 20.1436 20.9109 21.1244C20.0578 21.3782 19.0969 21.44 18.8063 21.4125V21.3851C18.9375 21.2822 19.4953 21.2068 20.1984 20.2465C20.5688 19.7458 20.9156 19.2108 21.2672 18.6758C22.1813 17.2903 23.2078 15.7813 25.1062 16.0008C26.1891 16.1242 26.4797 16.5632 26.7984 16.8719C26.8125 16.8856 26.8172 16.9062 26.8313 16.9336C26.8078 16.9336 26.7984 16.9405 26.7891 16.9336C26.4609 16.7484 26.1188 16.7072 25.7672 16.7072ZM25.1906 15.0542C25.1859 15.0679 25.1859 15.0817 25.1813 15.0954C23.8266 14.7936 22.9313 14.5535 21.9703 15.3697C21.1734 16.0488 20.4984 16.7758 19.0641 17.0433C17.7938 17.2765 16.95 17.208 15.9656 16.4946C15.9516 16.4809 15.9375 16.4672 15.9188 16.4535C15.9188 16.4397 15.9234 16.4329 15.9234 16.4192C17.0906 16.6798 17.6297 16.769 18.525 16.0213C19.5703 15.1365 20.4047 14.1968 21.8672 13.8951C23.2547 13.6138 24.2719 14.0665 25.1906 15.0542ZM12.5906 4.11411C12.5625 4.07296 12.5391 4.0318 12.4922 3.95635C12.8484 3.95635 13.8844 3.87404 14.9953 4.53251C15.9187 5.08123 16.5047 5.9729 17.3484 6.78912C17.8687 7.28983 18.4453 7.42701 19.0547 7.3447C19.2563 7.31727 19.4531 7.26239 19.6547 7.2281C19.6734 7.22124 19.6969 7.2281 19.725 7.24868C19.6969 7.27611 19.6688 7.31041 19.6406 7.33098C19.2609 7.60534 18.8578 7.7631 18.4406 7.81797C17.2172 7.99631 16.0828 7.56419 15 6.76169C14.0953 6.08264 13.2938 5.19097 12.5906 4.11411ZM30 20.466C29.8359 20.6786 28.9359 21.2616 27.9984 20.8295C27.4219 20.562 27.0844 19.8075 26.5172 19.1765C26.0484 18.6552 25.5375 18.6346 25.2 18.6003C25.2281 18.5455 25.2422 18.518 25.2562 18.5043C25.95 17.8733 26.6859 17.6675 27.4734 18.0585C28.0594 18.3465 28.3734 18.9844 28.8984 19.7183C29.4047 20.4317 29.8828 20.3974 29.9812 20.4385C29.9859 20.4317 29.9906 20.4385 30 20.466ZM20.0391 29.8628C20.1422 29.9451 20.1141 29.9657 20.1094 30C19.2422 29.904 18.5203 29.4787 17.9156 28.4773C16.8938 26.7831 15.9609 26.5636 15.6375 26.4402C15.6609 26.4265 15.675 26.4127 15.6891 26.4127C16.3031 26.4196 16.9125 26.4608 17.5125 26.6802C18.6984 27.1192 19.1531 28.4224 19.4625 29.1015C19.6125 29.4307 19.8047 29.6708 20.0391 29.8628Z" fill="#01EEFF"/>
</svg>
