<svg width="50" height="50" viewBox="0 0 50 50" fill="none" xmlns="http://www.w3.org/2000/svg">
<path d="M20.1895 33.2852C20.1895 33.4023 20.0547 33.4961 19.8848 33.4961C19.6914 33.5137 19.5566 33.4199 19.5566 33.2852C19.5566 33.168 19.6914 33.0742 19.8613 33.0742C20.0371 33.0566 20.1895 33.1504 20.1895 33.2852ZM18.3672 33.0215C18.3262 33.1387 18.4434 33.2734 18.6191 33.3086C18.7715 33.3672 18.9473 33.3086 18.9824 33.1914C19.0176 33.0742 18.9062 32.9395 18.7305 32.8867C18.5781 32.8457 18.4082 32.9043 18.3672 33.0215ZM20.957 32.9219C20.7871 32.9629 20.6699 33.0742 20.6875 33.209C20.7051 33.3262 20.8574 33.4023 21.0332 33.3613C21.2031 33.3203 21.3203 33.209 21.3027 33.0918C21.2852 32.9805 21.127 32.9043 20.957 32.9219ZM24.8125 10.4688C16.6855 10.4688 10.4688 16.6387 10.4688 24.7656C10.4688 31.2637 14.5586 36.8242 20.4004 38.7812C21.1504 38.916 21.4141 38.4531 21.4141 38.0723C21.4141 37.709 21.3965 35.7051 21.3965 34.4746C21.3965 34.4746 17.2949 35.3535 16.4336 32.7285C16.4336 32.7285 15.7656 31.0234 14.8047 30.584C14.8047 30.584 13.4629 29.6641 14.8984 29.6816C14.8984 29.6816 16.3574 29.7988 17.1602 31.1934C18.4434 33.4551 20.5938 32.8047 21.4316 32.418C21.5664 31.4805 21.9473 30.8301 22.3691 30.4434C19.0938 30.0801 15.7891 29.6055 15.7891 23.9688C15.7891 22.3574 16.2344 21.5488 17.1719 20.5176C17.0195 20.1367 16.5215 18.5664 17.3242 16.5391C18.5488 16.1582 21.3672 18.1211 21.3672 18.1211C22.5391 17.793 23.7988 17.623 25.0469 17.623C26.2949 17.623 27.5547 17.793 28.7266 18.1211C28.7266 18.1211 31.5449 16.1523 32.7695 16.5391C33.5723 18.5723 33.0742 20.1367 32.9219 20.5176C33.8594 21.5547 34.4336 22.3633 34.4336 23.9688C34.4336 29.623 30.9824 30.0742 27.707 30.4434C28.2461 30.9062 28.7031 31.7852 28.7031 33.1621C28.7031 35.1367 28.6855 37.5801 28.6855 38.0605C28.6855 38.4414 28.9551 38.9043 29.6992 38.7695C35.5586 36.8242 39.5312 31.2637 39.5312 24.7656C39.5312 16.6387 32.9395 10.4688 24.8125 10.4688ZM16.1641 30.6777C16.0879 30.7363 16.1055 30.8711 16.2051 30.9824C16.2988 31.0762 16.4336 31.1172 16.5098 31.041C16.5859 30.9824 16.5684 30.8477 16.4688 30.7363C16.375 30.6426 16.2402 30.6016 16.1641 30.6777ZM15.5312 30.2031C15.4902 30.2793 15.5488 30.373 15.666 30.4316C15.7598 30.4902 15.877 30.4727 15.918 30.3906C15.959 30.3145 15.9004 30.2207 15.7832 30.1621C15.666 30.127 15.5723 30.1445 15.5312 30.2031ZM17.4297 32.2891C17.3359 32.3652 17.3711 32.541 17.5059 32.6523C17.6406 32.7871 17.8105 32.8047 17.8867 32.7109C17.9629 32.6348 17.9277 32.459 17.8105 32.3477C17.6816 32.2129 17.5059 32.1953 17.4297 32.2891ZM16.7617 31.4277C16.668 31.4863 16.668 31.6387 16.7617 31.7734C16.8555 31.9082 17.0137 31.9668 17.0898 31.9082C17.1836 31.832 17.1836 31.6797 17.0898 31.5449C17.0078 31.4102 16.8555 31.3516 16.7617 31.4277Z" fill="#01EEFF" fill-opacity="0.73"/>
</svg>
