<svg width="42" height="45" viewBox="0 0 42 45" fill="none" xmlns="http://www.w3.org/2000/svg">
<path d="M30.9049 25.2901V33.1137H26.8174V26.1833C26.8174 25.3556 26.8099 24.4051 26.5351 23.6617C26.3975 23.2894 26.1923 22.9674 25.8862 22.7386C25.58 22.5098 25.1748 22.3758 24.6401 22.3758C24.0985 22.3758 23.6697 22.4891 23.3315 22.6897C22.9932 22.8903 22.7472 23.1774 22.5697 23.5223C22.2152 24.2109 22.1329 25.1321 22.1329 26.0639V33.1137H18.0454V18.8755H21.968V20.8V20.8244H21.9924H22.0503H22.0655L22.0723 20.8108C22.6215 19.6956 23.9639 18.5173 25.9682 18.5173C27.0131 18.5173 27.843 18.7016 28.5003 19.0366C29.1573 19.3715 29.6432 19.8577 29.9993 20.4637C30.7121 21.6768 30.9049 23.3703 30.9049 25.2901ZM15.4028 33.1137H11.3108V18.8755H15.4028V33.1137ZM13.3546 16.8778C12.0458 16.8778 10.9809 15.7156 10.9809 14.3085C10.9809 13.633 11.2314 12.9855 11.6767 12.5083C12.122 12.0312 12.7256 11.7635 13.3546 11.7635C13.9836 11.7635 14.5871 12.0312 15.0324 12.5083C15.4778 12.9855 15.7283 13.633 15.7283 14.3085C15.7283 15.7156 14.6629 16.8778 13.3546 16.8778Z" fill="#2DD8E4" stroke="#2DD8E4" stroke-width="0.0488281"/>
</svg>
