<svg width="35" height="36" viewBox="0 0 35 36" fill="none" xmlns="http://www.w3.org/2000/svg">
<path d="M20.9676 9.7843C20.6784 10.0794 20.5164 10.4761 20.5164 10.8893C20.5164 11.3025 20.6784 11.6992 20.9676 11.9942L23.4933 14.5199C23.7884 14.8091 24.1851 14.9711 24.5983 14.9711C25.0115 14.9711 25.4082 14.8091 25.7033 14.5199L31.6543 8.56882C32.4481 10.3229 32.6884 12.2772 32.3433 14.1713C31.9982 16.0654 31.084 17.8093 29.7226 19.1707C28.3613 20.5321 26.6173 21.4462 24.7232 21.7914C22.8291 22.1365 20.8748 21.8961 19.1208 21.1024L8.21309 32.0101C7.5851 32.638 6.73338 32.9908 5.84528 32.9908C4.95718 32.9908 4.10546 32.638 3.47748 32.0101C2.8495 31.3821 2.4967 30.5304 2.4967 29.6423C2.4967 28.7542 2.8495 27.9024 3.47748 27.2745L14.3852 16.3668C13.5914 14.6127 13.3511 12.6584 13.6962 10.7643C14.0413 8.87023 14.9555 7.12629 16.3168 5.7649C17.6782 4.40352 19.4222 3.48936 21.3163 3.14425C23.2104 2.79914 25.1647 3.03947 26.9187 3.83322L20.9834 9.76851L20.9676 9.7843Z" stroke="#01EEFF" stroke-width="5" stroke-linecap="round" stroke-linejoin="round"/>
</svg>
